# xmcd
#
# Track frame offsets:
#	225
#	25109
#	40687
#	55641
#	77723
#	102487
#	118345
#	139518
#	163586
#	189530
#
# Disc length: 2749 seconds
#
# Revision: 0
# Processed by: cddbd v1.5.2PL0 Copyright (c) Steve Scherf et al.
# Submitted via: EasyCDDAExtractor 8.2.3.1
#
DISCID=7d0aba0a
DTITLE=MICHAEL OSBORN - What Goes Around
DYEAR=2007
DGENRE=Blues
TTITLE0=What Goes Around
TTITLE1=The Glamorous Life
TTITLE2=Don't You Do Me That Way
TTITLE3=Hey Baby
TTITLE4=Innocent (But On Trial)
TTITLE5=Snake These Blues
TTITLE6=One Thing Before You Go
TTITLE7=Got Me Runnin'
TTITLE8=Nightmare Blues
TTITLE9=The Rum Boogie
EXTD=
EXTT0=
EXTT1=
EXTT2=
EXTT3=
EXTT4=
EXTT5=
EXTT6=
EXTT7=
EXTT8=
EXTT9=
PLAYORDER=
